<svg xmlns="http://www.w3.org/2000/svg" viewBox="0 0 32 32" fill="none">
  <defs>
    <linearGradient id="flaskGrad" x1="8" y1="4" x2="24" y2="28" gradientUnits="userSpaceOnUse">
      <stop offset="0%" stop-color="#60a5fa"/>
      <stop offset="100%" stop-color="#3b82f6"/>
    </linearGradient>
  </defs>
  <!-- Flask body -->
  <path d="M12 4 L12 14 L6 26 C5.2 27.6 6.4 29 8 29 L24 29 C25.6 29 26.8 27.6 26 26 L20 14 L20 4 Z" stroke="url(#flaskGrad)" stroke-width="2" stroke-linecap="round" stroke-linejoin="round" fill="none"/>
  <!-- Flask neck ring -->
  <line x1="10" y1="4" x2="22" y2="4" stroke="url(#flaskGrad)" stroke-width="2" stroke-linecap="round"/>
  <!-- Liquid level -->
  <path d="M8.5 22 L23.5 22 L26 26 C26.8 27.6 25.6 29 24 29 L8 29 C6.4 29 5.2 27.6 6 26 Z" fill="#3b82f6" opacity="0.3"/>
  <!-- Bubbles -->
  <circle cx="14" cy="24" r="1.2" fill="#60a5fa" opacity="0.6"/>
  <circle cx="18" cy="21" r="0.8" fill="#60a5fa" opacity="0.5"/>
  <circle cx="16" cy="26" r="0.6" fill="#60a5fa" opacity="0.4"/>
</svg>
